<svg xmlns="http://www.w3.org/2000/svg" viewBox="0 0 324 41.76"><title>NYT-WIRE-rgb-k3-T-</title><path d="M31.59,25.56a12.44,12.44,0,0,1-7,7.37V25.56l4-3.63-4-3.58V13.28A6.36,6.36,0,0,0,30.82,7c0-4.35-4.14-5.88-6.49-5.88a7.18,7.18,0,0,0-1.9.2v.2c.31,0,.77-.05.92-.05,1.64,0,2.87.77,2.87,2.25A2.36,2.36,0,0,1,23.66,6c-4,0-8.8-3.28-14-3.28-4.6,0-7.77,3.43-7.77,6.91s2,4.55,4.09,5.32l0-.21a2.45,2.45,0,0,1-1.12-2.25A3,3,0,0,1,8.16,9.65c4.35,0,11.36,3.63,15.71,3.63h.41V18.4l-4.05,3.53,4.05,3.63V33a15.22,15.22,0,0,1-5.22.87C12.3,33.9,8,29.81,8,23a16.54,16.54,0,0,1,.66-4.76l3.38-1.48v15l6.85-3V13.38L8.82,17.89a11,11,0,0,1,5.63-6.35l0-.15C7.65,12.87,1.1,18,1.1,25.66c0,8.85,7.47,15,16.17,15,9.21,0,14.42-6.14,14.47-15.09Z"/><path d="M122.4,32.24V21h-2.05V14.32H134v3.79c2.2-2.35,4.66-4.35,8.09-4.35a13.67,13.67,0,0,1,1.43.05v8.5a20.92,20.92,0,0,0-5.48.41,5.35,5.35,0,0,0-3.43,2.36c-.46.87-.61,1.89-.61,4.71v2.45h2.76V38.9H120.35V32.24Z"/><path d="M158.75,39.41c-3.69,0-7.79-.77-10.65-3.33a12.44,12.44,0,0,1-4.25-9.57c0-8,6.4-12.7,14-12.7,8.29,0,13.77,5.84,13.77,12.9,0,.82-.05,1.59-.1,2.41H155.47c.31,2.87,1.84,4.15,4.2,4.15a4.55,4.55,0,0,0,3.84-2.15h8C169.86,36.75,164.69,39.41,158.75,39.41Zm-3.33-14.08h6v-.61c0-2.1-.51-4.25-3-4.25a2.8,2.8,0,0,0-2.76,1.94A7.91,7.91,0,0,0,155.42,25.33Z"/><path d="M184.35,13.81c2.61,0,4.71.62,6,2.1V14.32h7.37V23.9h-7.37c0-2.25-1-3.43-2.46-3.43-1.84,0-3.07,2-3.07,4.81,0,4.66,2.92,6.91,7,6.91a21,21,0,0,0,5.94-.92v6.4a24,24,0,0,1-9.52,1.74,16.1,16.1,0,0,1-8.5-1.94,13.21,13.21,0,0,1-6.45-11.63C173.29,18.88,178,13.81,184.35,13.81Z"/><path d="M210.46,39.41c-5.48,0-8.86-3.17-8.86-8.29V21h-2.15V14.32h13.72V29.07c0,2.05.87,3.17,2.61,3.17,1.54,0,2.46-1.12,2.46-3.17V21h-2.3V14.32h13.87V32.24h2.05V38.9H218.24V36C216.4,37.47,213.58,39.41,210.46,39.41Z"/><path d="M232.38,21V14.32h2.31V6.64h11.57v7.68h3.43V21h-3.43V32.24h3.43V38.9h-15V21Z"/><path d="M251.17,21V14.32h2.31V6.64h11.57v7.68h3.43V21h-3.43V32.24h3.43V38.9h-15V21Z"/><path d="M285,39.41c-3.68,0-7.78-.77-10.65-3.33a12.48,12.48,0,0,1-4.25-9.57c0-8,6.4-12.7,14-12.7,8.3,0,13.78,5.84,13.78,12.9,0,.82-.05,1.59-.1,2.41H281.74c.3,2.87,1.84,4.15,4.2,4.15a4.57,4.57,0,0,0,3.84-2.15h8C296.13,36.75,291,39.41,285,39.41Zm-3.32-14.08h6v-.61c0-2.1-.51-4.25-3-4.25a2.81,2.81,0,0,0-2.77,1.94A8,8,0,0,0,281.69,25.33Z"/><path d="M301.81,32.24V21h-2.05V14.32h13.62v3.79c2.2-2.35,4.66-4.35,8.09-4.35a13.67,13.67,0,0,1,1.43.05v8.5a20.92,20.92,0,0,0-5.48.41A5.35,5.35,0,0,0,314,25.08c-.46.87-.61,1.89-.61,4.71v2.45h2.76V38.9H299.76V32.24Z"/><path d="M105,32.28V21.09h-2V14.48h13.53v17.8h2.13v6.61H102.94V32.28Zm11.5-29v8.69H105V3.24Z"/><path d="M52.3,10.43V3.24H69.24v7.19H66.9l3.58,14.41h0L76,3.24h8.82l5.42,22.3h.09l3.91-15.11H90.58V3.24h12.3v7.19h-1.4l-8,28.47H82.2l-4-16.11h-.1L74,38.9H62.64L54.57,10.43Z"/><rect x="41.15" y="3.44" width="0.94" height="35.54"/></svg>